:SAMPLES-PER-SECOND 30
:FRAME-RANGE 1-2009
:FULLY-SPECIFIED
:DEGREES
1507
root  60.3632 38.2737 -16.3785 0.386414 19.1348 0.476624
RightUpLeg  -19.6503 -13.4387 8.52888
RightLeg  22.5689 -18.6385 -2.89894
RightFoot  -8.03161 0.240987 -10.1772
RightToes  4.71047e-010 1.2921e-014 -6.02303e-014
Spine  9.29805 -1.31823 3.17007
Spine1  5.22466 -2.85384 7.56272
HEad  -5.31528 36.8676 -9.39343
LeftShoulder1  1.13065 -2.87261 -10.4627
LeftArm  40.348 -40.9324 -15.0681
LeftForeArm  -1.96591 -25.5868 -5.58566
LeftHand  0.116873 1.09124 -3.36348
RightShoulder  8.47657 11.4981 49.4895
RightArm  10.2851 -1.76473 11.7554
RightForeArm  22.0741 3.15109 15.8633
RightHand  0.344463 1.38732 5.78244
LeftUpLeg  -17.5174 21.1671 1.46586
LeftLeg  54.4225 -0.479917 -0.240705
LeftFoot  0.665078 1.77099 -16.7787
LeftToes  2.15783e-011 -7.56106e-012 -8.20802e-012
1508
root  60.8201 38.1311 -15.8915 0.0208435 17.2564 -0.0998535
RightUpLeg  -19.6414 -13.2221 8.95889
RightLeg  25.0544 -16.837 -3.60867
RightFoot  -9.74814 0.0664222 -9.46982
RightToes  4.71047e-010 1.2921e-014 -6.02303e-014
Spine  9.90775 -0.821176 5.44346
Spine1  5.26464 -2.11516 7.7889
HEad  -5.39036 38.2066 -9.16517
LeftShoulder1  1.14631 -2.8368 -10.8482
LeftArm  35.0171 -35.3728 -16.3903
LeftForeArm  4.52529 -29.4127 -6.14483
LeftHand  0.143776 1.39306 -4.46614
RightShoulder  8.95801 12.4396 49.2055
RightArm  7.48183 0.210646 11.8032
RightForeArm  23.7238 2.73239 15.6138
RightHand  0.319515 1.21701 5.51095
LeftUpLeg  -21.3328 19.52 2.56899
LeftLeg  60.1579 -0.705583 -0.777985
LeftFoot  4.22905 1.7191 -12.7211
LeftToes  2.15783e-011 -7.56106e-012 -8.20802e-012
1509
root  61.2914 38.2926 -15.3611 0.180832 15.1138 0.490601
RightUpLeg  -18.4411 -11.4395 7.82466
RightLeg  25.051 -16.3059 -3.69789
RightFoot  -10.1953 0.0147794 -8.32705
RightToes  4.71047e-010 1.2921e-014 -6.02303e-014
Spine  10.4811 -0.447092 6.48018
Spine1  4.83265 -1.43266 7.13988
HEad  -5.28585 39.8106 -8.72447
LeftShoulder1  1.14307 -2.42315 -12.1834
LeftArm  33.6375 -29.8093 -16.571
LeftForeArm  10.4354 -32.2654 -6.52661
LeftHand  0.114045 2.23138 -4.74863
RightShoulder  9.35975 13.2047 49.052
RightArm  5.63165 1.83255 12.1166
RightForeArm  23.761 3.65667 15.116
RightHand  0.28706 1.13339 5.01241
LeftUpLeg  -24.0746 17.5267 2.32469
LeftLeg  62.2355 0.39247 1.40777
LeftFoot  2.60648 1.31826 -10.8823
LeftToes  2.15783e-011 -7.56106e-012 -8.20802e-012
1510
root  61.7398 38.5735 -14.793 0.27504 13.0902 1.34747
RightUpLeg  -16.3948 -8.33524 6.15879
RightLeg  23.6777 -17.4502 -3.65458
RightFoot  -10.0597 0.0132305 -7.23427
RightToes  4.71047e-010 1.2921e-014 -6.02303e-014
Spine  10.8004 -0.0563015 7.20597
Spine1  4.60787 -0.739228 6.24279
HEad  -5.09121 40.758 -8.13475
LeftShoulder1  1.14693 -2.03614 -13.7432
LeftArm  33.9949 -25.4753 -16.197
LeftForeArm  12.0075 -34.5686 -7.042
LeftHand  0.145257 2.07791 -5.60739
RightShoulder  9.61536 13.738 48.8276
RightArm  7.46744 2.51589 12.5948
RightForeArm  19.5482 7.01414 14.2252
RightHand  0.26501 1.06969 4.67181
LeftUpLeg  -25.4022 15.0313 2.03451
LeftLeg  60.5615 1.35877 3.17431
LeftFoot  1.1129 1.05138 -9.68183
LeftToes  2.15783e-011 -7.56106e-012 -8.20802e-012
1511
root  62.1666 38.892 -14.2251 0.60141 10.7494 2.39423
RightUpLeg  -14.3119 -5.97563 4.5713
RightLeg  21.3651 -17.2 -3.08346
RightFoot  -9.63214 0.0314215 -6.45287
RightToes  4.71047e-010 1.2921e-014 -6.02303e-014
Spine  10.9832 0.523905 8.01649
Spine1  4.08272 0.293904 4.57137
HEad  -4.65323 41.1751 -7.35837
LeftShoulder1  1.14585 -1.80766 -14.6965
LeftArm  37.8025 -22.869 -16.5501
LeftForeArm  12.4224 -35.116 -7.16659
LeftHand  0.12661 2.3935 -5.54917
RightShoulder  9.73789 13.9855 48.7474
RightArm  13.2778 2.59743 13.0925
RightForeArm  12.3526 11.7771 12.4239
RightHand  0.256499 1.05522 4.53028
LeftUpLeg  -25.6795 12.3173 1.58079
LeftLeg  55.6492 2.16352 3.89566
LeftFoot  -0.348539 0.783257 -8.1102
LeftToes  2.15783e-011 -7.56106e-012 -8.20802e-012
1512
root  62.5339 39.2251 -13.6392 0.99707 8.5733 3.2784
RightUpLeg  -12.1877 -4.747 3.39171
RightLeg  18.4356 -16.1144 -2.35127
RightFoot  -8.98759 0.058734 -5.80431
RightToes  4.71047e-010 1.2921e-014 -6.02303e-014
Spine  11.0263 1.13543 8.31887
Spine1  3.38688 1.16573 3.34057
HEad  -4.33802 41.6349 -7.18952
LeftShoulder1  1.16002 -1.78469 -15.0922
LeftArm  41.8651 -20.3164 -17.8236
LeftForeArm  12.6928 -35.1697 -7.16514
LeftHand  0.108151 2.46308 -4.95123
RightShoulder  9.73729 14.1081 48.4012
RightArm  20.9709 2.39131 13.7853
RightForeArm  5.12107 16.5645 9.51608
RightHand  0.24576 1.07393 4.32195
LeftUpLeg  -24.9918 8.65125 1.31911
LeftLeg  47.9053 3.27595 4.29338
LeftFoot  -1.58868 0.644459 -7.43647
LeftToes  2.15783e-011 -7.56106e-012 -8.20802e-012
1513
root  62.8446 39.5215 -13.055 1.38733 6.52174 3.97144
RightUpLeg  -10.1033 -4.39505 2.49659
RightLeg  15.2919 -14.3689 -1.54824
RightFoot  -8.26355 0.0903584 -5.43363
RightToes  4.71047e-010 1.2921e-014 -6.02303e-014
Spine  10.957 1.62167 7.98101
Spine1  2.70313 1.6703 2.86521
HEad  -4.23918 42.7298 -7.53179
LeftShoulder1  1.19134 -1.75015 -15.9004
LeftArm  46.7067 -17.4577 -18.6589
LeftForeArm  14.3053 -35.2327 -7.08563
LeftHand  0.0896223 1.90302 -3.397
RightShoulder  9.79874 14.3245 48.1103
RightArm  27.5342 2.34997 14.2733
RightForeArm  0.513523 20.3528 6.59629
RightHand  0.242935 1.15411 4.21038
LeftUpLeg  -23.2477 4.4776 1.28466
LeftLeg  37.6763 4.25771 3.8795
LeftFoot  -2.14975 0.58916 -7.16382
LeftToes  2.15783e-011 -7.56106e-012 -8.20802e-012
1514
root  63.1368 39.7481 -12.4562 1.65208 4.56834 4.22816
RightUpLeg  -8.05824 -4.08176 2.05248
RightLeg  12.3658 -13.0154 -1.02432
RightFoot  -7.66739 0.117734 -5.27913
RightToes  4.71047e-010 1.2921e-014 -6.02303e-014
Spine  10.538 1.83253 7.72715
Spine1  2.50958 1.84726 2.64658
HEad  -4.2474 44.5699 -8.16507
LeftShoulder1  1.25704 -1.76016 -17.2106
LeftArm  52.2619 -14.4147 -18.8878
LeftForeArm  16.1295 -34.3444 -6.73678
LeftHand  0.00230456 1.39693 -0.292637
RightShoulder  10.071 14.9009 47.8897
RightArm  29.7665 2.40345 14.6605
RightForeArm  0.055827 22.6329 5.19405
RightHand  0.257775 1.27205 4.38272
LeftUpLeg  -20.5376 0.123063 1.60543
LeftLeg  26.0702 3.45077 2.16464
LeftFoot  -2.12332 0.645726 -7.84467
LeftToes  2.15783e-011 -7.56106e-012 -8.20802e-012
1515
root  63.4008 39.8711 -11.815 1.72296 2.40941 3.96822
RightUpLeg  -6.18046 -3.43473 2.21775
RightLeg  10.2483 -11.672 -0.86229
RightFoot  -7.50437 0.118525 -5.0461
RightToes  4.71047e-010 1.2921e-014 -6.02303e-014
Spine  10.2121 1.74686 7.89298
Spine1  2.37482 1.88501 2.015
HEad  -4.14136 46.8786 -8.1421
LeftShoulder1  1.29085 -1.70137 -18.2051
LeftArm  54.8782 -10.2505 -18.5043
LeftForeArm  16.1409 -33.2102 -6.43872
LeftHand  -0.0495187 1.92548 1.3363
RightShoulder  10.3916 15.3149 48.3285
RightArm  30.2645 2.87707 14.9618
RightForeArm  0.878239 23.8366 5.05209
RightHand  0.294808 1.46335 4.86919
LeftUpLeg  -17.5577 -2.62371 2.0998
LeftLeg  15.7897 -0.987387 0.00121037
LeftFoot  -2.01443 0.841867 -10.1538
LeftToes  2.15783e-011 -7.56106e-012 -8.20802e-012
1516
root  63.6495 39.8674 -11.15 1.71078 0.123199 3.15096
RightUpLeg  -4.97808 -2.57647 2.94611
RightLeg  9.79608 -10.2072 -1.03751
RightFoot  -8.14176 0.0722233 -4.55129
RightToes  4.71047e-010 1.2921e-014 -6.02303e-014
Spine  9.85808 1.63697 8.10871
Spine1  2.25476 1.82296 1.82319
HEad  -4.03927 49.2539 -7.72505
LeftShoulder1  1.2269 -1.33657 -18.7928
LeftArm  54.9024 -5.57707 -17.9409
LeftForeArm  15.4436 -32.014 -6.17427
LeftHand  -0.0826805 2.05406 2.54479
RightShoulder  10.4582 15.2799 48.7329
RightArm  30.5791 3.51322 15.4154
RightForeArm  1.49583 24.2211 5.10517
RightHand  0.338151 1.6979 5.39533
LeftUpLeg  -15.1696 -0.975306 1.93844
LeftLeg  9.3411 -8.7751 -1.09895
LeftFoot  -2.07797 1.11885 -13.6063
LeftToes  2.15783e-011 -7.56106e-012 -8.20802e-012
